<svg xmlns="http://www.w3.org/2000/svg" width="50.447" height="44" viewBox="0 0 50.447 44">
  <g id="Group_16" data-name="Group 16" transform="translate(-137 -29)">
    <circle id="Ellipse_1" data-name="Ellipse 1" cx="22" cy="22" r="22" transform="translate(137 29)" fill="#252525"/>
    <path id="Path_1" data-name="Path 1" d="M151.153,58.14a7.228,7.228,0,0,1-2.76-.5,4.574,4.574,0,0,1-1.96-1.48,4.086,4.086,0,0,1-.76-2.36h3.64a1.813,1.813,0,0,0,.54,1.2,1.764,1.764,0,0,0,1.2.4,1.914,1.914,0,0,0,1.2-.34,1.2,1.2,0,0,0,.44-.98,1.132,1.132,0,0,0-.36-.86,2.659,2.659,0,0,0-.86-.56,12.948,12.948,0,0,0-1.44-.5,15.852,15.852,0,0,1-2.22-.84,4.11,4.11,0,0,1-1.48-1.24,3.457,3.457,0,0,1-.62-2.14,3.654,3.654,0,0,1,1.42-3.06,5.8,5.8,0,0,1,3.7-1.12,5.864,5.864,0,0,1,3.74,1.12,3.94,3.94,0,0,1,1.52,3.08h-3.7a1.411,1.411,0,0,0-.5-1.06,1.732,1.732,0,0,0-1.18-.4,1.445,1.445,0,0,0-1,.34,1.161,1.161,0,0,0-.38.94,1.179,1.179,0,0,0,.64,1.06,10.519,10.519,0,0,0,2,.82,17.8,17.8,0,0,1,2.2.88,4.172,4.172,0,0,1,1.48,1.22,3.262,3.262,0,0,1,.62,2.06,3.988,3.988,0,0,1-.62,2.18,4.2,4.2,0,0,1-1.76,1.56A6.056,6.056,0,0,1,151.153,58.14ZM174.4,46.84,171.378,58H167.6l-1.76-7.24L164.018,58h-3.76l-3.04-11.16h3.42l1.58,7.98,1.88-7.98h3.62l1.9,7.94,1.56-7.94Zm7.524,8.26V58h-1.74a4.29,4.29,0,0,1-2.9-.9,3.8,3.8,0,0,1-1.04-2.98V49.68h-1.36V46.84h1.36V44.12h3.42v2.72h2.24v2.84h-2.24v4.48a.937.937,0,0,0,.24.72,1.172,1.172,0,0,0,.8.22Zm3.505,3.06a2.134,2.134,0,0,1-1.48-.52,1.765,1.765,0,0,1-.56-1.32,1.788,1.788,0,0,1,.56-1.34,2.087,2.087,0,0,1,1.48-.54,1.988,1.988,0,0,1,1.44.54,1.756,1.756,0,0,1,.58,1.34,1.734,1.734,0,0,1-.58,1.32A2.031,2.031,0,0,1,185.427,58.16Z" fill="#fff"/>
  </g>
</svg>