<svg xmlns="http://www.w3.org/2000/svg" width="43" height="32.25" viewBox="0 0 43 32.25">
  <g id="Group_18" data-name="Group 18" transform="translate(-1490 -33.375)">
    <path id="Path_51" data-name="Path 51" d="M1529.89,33.375h-36.78a3.185,3.185,0,0,0-3.11,3.256V62.366a3.188,3.188,0,0,0,3.11,3.259h36.78a3.194,3.194,0,0,0,3.11-3.259V36.631A3.185,3.185,0,0,0,1529.89,33.375Zm-15.7,25.531h-5.38V49.5l-4.03,5.375-4.03-5.375v9.406h-5.37V40.094h5.37l4.03,6.719,4.03-6.719h5.38Zm8.06,0-6.72-9.406h4.04l-.01-9.406h5.38V49.5h4.03Z" fill="#252525"/>
  </g>
</svg>
